# This file uses centimeters as units for non-parametric coordinates.

mtllib hollow_cylinder.mtl
g default
v 0.000000 0.366768 -0.350000
v 0.000000 0.366768 -0.400000
v 0.123607 0.366768 -0.380423
v 0.108156 0.366768 -0.332870
v -0.332870 0.366768 0.108156
v -0.380423 0.366768 0.123607
v -0.400000 0.366768 0.000000
v -0.350000 0.366768 0.000000
v 0.235114 0.366768 -0.323607
v 0.205725 0.366768 -0.283156
v -0.283156 0.366768 0.205725
v -0.323607 0.366768 0.235114
v -0.205725 0.366768 0.283156
v -0.235114 0.366768 0.323607
v 0.323607 0.366768 -0.235114
v 0.283156 0.366768 -0.205725
v -0.108156 0.366768 0.332870
v -0.123607 0.366768 0.380423
v 0.380423 0.366768 -0.123607
v 0.332870 0.366768 -0.108156
v -0.000000 0.366768 0.350000
v -0.000000 0.366768 0.400000
v 0.400000 0.366768 0.000000
v 0.350000 0.366768 0.000000
v 0.380423 0.366768 0.123607
v 0.332870 0.366768 0.108156
v 0.108156 0.366768 0.332870
v 0.123607 0.366768 0.380423
v -0.235114 0.366768 -0.323607
v -0.323607 0.366768 -0.235114
v -0.323607 2.366768 -0.235114
v -0.235114 2.366768 -0.323607
v -0.123607 0.366768 -0.380423
v -0.123607 2.366768 -0.380423
v -0.380423 0.366768 -0.123607
v -0.380423 2.366768 -0.123607
v 0.205725 0.366768 0.283156
v 0.235114 0.366768 0.323607
v 0.323607 0.366768 0.235114
v 0.283156 0.366768 0.205725
v -0.283156 0.366768 -0.205725
v -0.205725 0.366768 -0.283156
v -0.205725 2.366768 -0.283156
v -0.283156 2.366768 -0.205725
v -0.108156 0.366768 -0.332870
v -0.108156 2.366768 -0.332870
v -0.332870 0.366768 -0.108156
v -0.332870 2.366768 -0.108156
v 0.000000 2.366768 -0.400000
v -0.400000 2.366768 0.000000
v 0.000000 2.366768 -0.350000
v -0.350000 2.366768 0.000000
v 0.123607 2.366768 -0.380423
v -0.380423 2.366768 0.123607
v 0.108156 2.366768 -0.332870
v -0.332870 2.366768 0.108156
v 0.235114 2.366768 -0.323607
v -0.323607 2.366768 0.235114
v 0.205725 2.366768 -0.283156
v -0.283156 2.366768 0.205725
v -0.235114 2.366768 0.323607
v -0.205725 2.366768 0.283156
v 0.283156 2.366768 -0.205725
v 0.323607 2.366768 -0.235114
v -0.108156 2.366768 0.332870
v 0.332870 2.366768 -0.108156
v -0.123607 2.366768 0.380423
v 0.380423 2.366768 -0.123607
v -0.000000 2.366768 0.350000
v 0.350000 2.366768 0.000000
v -0.000000 2.366768 0.400000
v 0.400000 2.366768 0.000000
v 0.332870 2.366768 0.108156
v 0.108156 2.366768 0.332870
v 0.380423 2.366768 0.123607
v 0.123607 2.366768 0.380423
v 0.283156 2.366768 0.205725
v 0.205725 2.366768 0.283156
v 0.235114 2.366768 0.323607
v 0.323607 2.366768 0.235114
vt 0.500000 0.018750
vt 0.500000 -0.000000
vt 0.548284 0.007647
vt 0.542248 0.025441
vt 0.369973 0.197717
vt 0.351397 0.204534
vt 0.343750 0.156250
vt 0.363281 0.155469
vt 0.591842 0.029841
vt 0.580361 0.044861
vt 0.389392 0.235830
vt 0.373591 0.248091
vt 0.419639 0.266077
vt 0.408159 0.282659
vt 0.626409 0.064408
vt 0.610608 0.075107
vt 0.457752 0.285496
vt 0.451716 0.304853
vt 0.648603 0.107966
vt 0.630027 0.113220
vt 0.500000 0.292187
vt 0.500000 0.312500
vt 0.656250 0.156250
vt 0.636719 0.155469
vt 0.648603 0.204534
vt 0.630027 0.197717
vt 0.542248 0.285496
vt 0.548284 0.304853
vt 0.450000 0.312500
vt 0.462500 0.312500
vt 0.462500 0.688440
vt 0.450000 0.688440
vt 0.437500 0.312500
vt 0.437500 0.688440
vt 0.475000 0.312500
vt 0.475000 0.688440
vt 0.580361 0.266077
vt 0.591841 0.282659
vt 0.626409 0.248091
vt 0.610608 0.235830
vt 0.462500 0.514258
vt 0.450000 0.514258
vt 0.450000 0.589446
vt 0.462500 0.589446
vt 0.437500 0.514258
vt 0.437500 0.589446
vt 0.475000 0.514258
vt 0.475000 0.589446
vt 0.425000 0.312500
vt 0.425000 0.688440
vt 0.487500 0.312500
vt 0.487500 0.688440
vt 0.425000 0.514258
vt 0.425000 0.589446
vt 0.487500 0.514258
vt 0.487500 0.589446
vt 0.412500 0.312500
vt 0.412500 0.688440
vt 0.500000 0.312500
vt 0.500000 0.688440
vt 0.412500 0.514258
vt 0.412500 0.589446
vt 0.500000 0.514258
vt 0.500000 0.589446
vt 0.400000 0.312500
vt 0.400000 0.688440
vt 0.512500 0.312500
vt 0.512500 0.688440
vt 0.400000 0.514258
vt 0.400000 0.589446
vt 0.512500 0.514258
vt 0.512500 0.589446
vt 0.525000 0.312500
vt 0.525000 0.688440
vt 0.525000 0.514258
vt 0.525000 0.589446
vt 0.387500 0.514258
vt 0.387500 0.589446
vt 0.387500 0.312500
vt 0.387500 0.688440
vt 0.537500 0.514258
vt 0.537500 0.589446
vt 0.375000 0.514258
vt 0.375000 0.589446
vt 0.537500 0.312500
vt 0.537500 0.688440
vt 0.375000 0.312500
vt 0.375000 0.688440
vt 0.550000 0.514258
vt 0.550000 0.589446
vt 0.625000 0.514258
vt 0.612500 0.514258
vt 0.612500 0.589446
vt 0.625000 0.589446
vt 0.550000 0.312500
vt 0.550000 0.688440
vt 0.612500 0.312500
vt 0.625000 0.312500
vt 0.625000 0.688440
vt 0.612500 0.688440
vt 0.600000 0.514258
vt 0.600000 0.589446
vt 0.562500 0.514258
vt 0.562500 0.589446
vt 0.600000 0.312500
vt 0.600000 0.688440
vt 0.562500 0.312500
vt 0.562500 0.688440
vt 0.587500 0.514258
vt 0.587500 0.589446
vt 0.575000 0.514258
vt 0.575000 0.589446
vt 0.419639 0.953577
vt 0.408159 0.970159
vt 0.373591 0.935591
vt 0.389392 0.923330
vt 0.457752 0.972996
vt 0.451716 0.992353
vt 0.351397 0.892034
vt 0.369973 0.885217
vt 0.575000 0.312500
vt 0.575000 0.688440
vt 0.587500 0.312500
vt 0.587500 0.688440
vt 0.500000 0.979687
vt 0.500000 1.000000
vt 0.343750 0.843750
vt 0.363281 0.842969
vt 0.542248 0.972996
vt 0.548284 0.992353
vt 0.351397 0.795466
vt 0.369973 0.800720
vt 0.580361 0.953577
vt 0.591841 0.970159
vt 0.373591 0.751909
vt 0.389392 0.762607
vt 0.408159 0.717341
vt 0.419639 0.732361
vt 0.610608 0.923330
vt 0.626409 0.935591
vt 0.451716 0.695147
vt 0.457752 0.712941
vt 0.630027 0.885217
vt 0.648603 0.892034
vt 0.500000 0.687500
vt 0.500000 0.706250
vt 0.636719 0.842969
vt 0.656250 0.843750
vt 0.630027 0.800720
vt 0.648603 0.795466
vt 0.548284 0.695147
vt 0.542248 0.712941
vt 0.591842 0.717341
vt 0.580361 0.732361
vt 0.610608 0.762607
vt 0.626409 0.751908
vt 0.351397 0.107966
vt 0.369973 0.113220
vt 0.457752 0.025441
vt 0.451716 0.007647
vt 0.373591 0.064409
vt 0.389392 0.075107
vt 0.419639 0.044861
vt 0.408159 0.029841
vn 0.000000 -1.000000 0.000000
vn 0.000000 -1.000000 0.000000
vn 0.000000 -1.000000 0.000000
vn 0.000000 -1.000000 0.000000
vn 0.000000 -1.000000 -0.000000
vn 0.000000 -1.000000 -0.000000
vn 0.000000 -1.000000 -0.000000
vn 0.000000 -1.000000 -0.000000
vn 0.000000 -1.000000 0.000000
vn 0.000000 -1.000000 0.000000
vn 0.000000 -1.000000 -0.000000
vn 0.000000 -1.000000 -0.000000
vn 0.000000 -1.000000 -0.000000
vn 0.000000 -1.000000 -0.000000
vn 0.000000 -1.000000 0.000000
vn 0.000000 -1.000000 0.000000
vn 0.000000 -1.000000 -0.000000
vn 0.000000 -1.000000 -0.000000
vn 0.000000 -1.000000 0.000000
vn 0.000000 -1.000000 0.000000
vn 0.000000 -1.000000 0.000000
vn 0.000000 -1.000000 -0.000000
vn 0.000000 -1.000000 0.000000
vn 0.000000 -1.000000 -0.000000
vn 0.000000 -1.000000 -0.000000
vn 0.000000 -1.000000 -0.000000
vn 0.000000 -1.000000 0.000000
vn 0.000000 -1.000000 0.000000
vn -0.587786 0.000000 -0.809017
vn -0.809017 0.000000 -0.587785
vn -0.809017 0.000000 -0.587785
vn -0.587786 0.000000 -0.809017
vn -0.309017 0.000000 -0.951057
vn -0.309017 0.000000 -0.951057
vn -0.951057 0.000000 -0.309017
vn -0.951057 0.000000 -0.309017
vn 0.000000 -1.000000 -0.000000
vn 0.000000 -1.000000 -0.000000
vn 0.000000 -1.000000 0.000000
vn 0.000000 -1.000000 0.000000
vn 0.809017 0.000000 0.587785
vn 0.587785 0.000000 0.809017
vn 0.587785 0.000000 0.809017
vn 0.809017 0.000000 0.587785
vn 0.309017 0.000000 0.951056
vn 0.309017 0.000000 0.951056
vn 0.951057 0.000000 0.309017
vn 0.951057 0.000000 0.309017
vn 0.000000 0.000000 -1.000000
vn 0.000000 0.000000 -1.000000
vn -1.000000 0.000000 0.000000
vn -1.000000 0.000000 0.000000
vn 0.000000 0.000000 1.000000
vn 0.000000 0.000000 1.000000
vn 1.000000 0.000000 0.000000
vn 1.000000 0.000000 0.000000
vn 0.309017 0.000000 -0.951057
vn 0.309017 0.000000 -0.951057
vn -0.951057 0.000000 0.309017
vn -0.951057 0.000000 0.309017
vn -0.309017 0.000000 0.951057
vn -0.309017 0.000000 0.951057
vn 0.951057 0.000000 -0.309017
vn 0.951057 0.000000 -0.309017
vn 0.587785 0.000000 -0.809017
vn 0.587785 0.000000 -0.809017
vn -0.809017 0.000000 0.587785
vn -0.809017 0.000000 0.587785
vn -0.587785 0.000000 0.809017
vn -0.587785 0.000000 0.809017
vn 0.809017 0.000000 -0.587785
vn 0.809017 0.000000 -0.587785
vn -0.587785 0.000000 0.809017
vn -0.587785 0.000000 0.809017
vn 0.587785 0.000000 -0.809017
vn 0.587785 0.000000 -0.809017
vn -0.809017 0.000000 0.587785
vn -0.809017 0.000000 0.587785
vn 0.809017 0.000000 -0.587785
vn 0.809017 0.000000 -0.587785
vn 0.309017 0.000000 -0.951057
vn 0.309017 0.000000 -0.951057
vn -0.951057 0.000000 0.309016
vn -0.951057 0.000000 0.309016
vn -0.309017 0.000000 0.951057
vn -0.309017 0.000000 0.951057
vn 0.951057 0.000000 -0.309016
vn 0.951057 0.000000 -0.309016
vn -0.000000 0.000000 -1.000000
vn -0.000000 0.000000 -1.000000
vn -1.000000 0.000000 -0.000001
vn -1.000000 0.000000 -0.000001
vn 0.000000 0.000000 1.000000
vn 0.000000 0.000000 1.000000
vn 1.000000 0.000000 0.000001
vn 1.000000 0.000000 0.000001
vn -0.951057 0.000000 -0.309017
vn -0.951057 0.000000 -0.309017
vn -0.309017 0.000000 -0.951057
vn -0.309017 0.000000 -0.951057
vn 0.951057 0.000000 0.309017
vn 0.951057 0.000000 0.309017
vn 0.309017 0.000000 0.951056
vn 0.309017 0.000000 0.951056
vn -0.809017 0.000000 -0.587785
vn -0.809017 0.000000 -0.587785
vn -0.587785 0.000000 -0.809017
vn -0.587785 0.000000 -0.809017
vn 0.000000 1.000000 0.000001
vn 0.000000 1.000000 0.000001
vn 0.000000 1.000000 0.000001
vn 0.000000 1.000000 0.000001
vn 0.000000 1.000000 0.000001
vn 0.000000 1.000000 0.000001
vn 0.000000 1.000000 0.000001
vn 0.000000 1.000000 0.000001
vn 0.587785 0.000000 0.809017
vn 0.587785 0.000000 0.809017
vn 0.809017 0.000000 0.587785
vn 0.809017 0.000000 0.587785
vn 0.000000 1.000000 0.000000
vn 0.000000 1.000000 0.000000
vn 0.000000 1.000000 -0.000001
vn 0.000000 1.000000 -0.000001
vn 0.000000 1.000000 0.000000
vn 0.000000 1.000000 0.000000
vn 0.000000 1.000000 -0.000000
vn 0.000000 1.000000 -0.000000
vn 0.000000 1.000000 0.000000
vn 0.000000 1.000000 0.000000
vn 0.000000 1.000000 0.000001
vn 0.000000 1.000000 0.000001
vn 0.000000 1.000000 0.000000
vn 0.000000 1.000000 0.000000
vn 0.000000 1.000000 -0.000001
vn 0.000000 1.000000 -0.000001
vn 0.000000 1.000000 0.000003
vn 0.000000 1.000000 0.000003
vn 0.000000 1.000000 0.000000
vn 0.000000 1.000000 0.000000
vn 0.000000 1.000000 0.000003
vn 0.000000 1.000000 0.000003
vn 0.000000 1.000000 0.000001
vn 0.000000 1.000000 0.000001
vn 0.000000 1.000000 -0.000001
vn 0.000000 1.000000 -0.000001
vn 0.000000 1.000000 -0.000001
vn 0.000000 1.000000 -0.000001
vn 0.000000 1.000000 0.000001
vn 0.000000 1.000000 0.000001
vn 0.000000 1.000000 0.000002
vn 0.000000 1.000000 0.000002
vn 0.000000 -1.000000 0.000000
vn 0.000000 -1.000000 0.000000
vn 0.000000 -1.000000 0.000000
vn 0.000000 -1.000000 0.000000
vn 0.000000 -1.000000 0.000000
vn 0.000000 -1.000000 0.000000
vn 0.000000 -1.000000 0.000000
vn 0.000000 -1.000000 0.000000
s 1
g pCylinder5
usemtl initialShadingGroup
f 1/1/1 2/2/2 3/3/3 4/4/4
f 5/5/5 6/6/6 7/7/7 8/8/8
f 4/4/4 3/3/3 9/9/9 10/10/10
f 11/11/11 12/12/12 6/6/6 5/5/5
f 13/13/13 14/14/14 12/12/12 11/11/11
f 10/10/10 9/9/9 15/15/15 16/16/16
f 17/17/17 18/18/18 14/14/14 13/13/13
f 16/16/16 15/15/15 19/19/19 20/20/20
f 21/21/21 22/22/22 18/18/18 17/17/17
f 20/20/20 19/19/19 23/23/23 24/24/24
f 24/24/24 23/23/23 25/25/25 26/26/26
f 27/27/27 28/28/28 22/22/22 21/21/21
s 3
f 29/29/29 30/30/30 31/31/31 32/32/32
f 33/33/33 29/29/29 32/32/32 34/34/34
f 30/30/30 35/35/35 36/36/36 31/31/31
s 1
f 37/37/37 38/38/38 28/28/28 27/27/27
f 26/26/26 25/25/25 39/39/39 40/40/40
s 4
f 41/41/41 42/42/42 43/43/43 44/44/44
s 1
f 40/40/40 39/39/39 38/38/38 37/37/37
s 4
f 42/42/42 45/45/45 46/46/46 43/43/43
f 47/47/47 41/41/41 44/44/44 48/48/48
s 3
f 2/49/49 33/33/33 34/34/34 49/50/50
f 35/35/35 7/51/51 50/52/52 36/36/36
s 4
f 45/45/45 1/53/53 51/54/54 46/46/46
f 8/55/55 47/47/47 48/48/48 52/56/56
s 3
f 3/57/57 2/49/49 49/50/50 53/58/58
f 7/51/51 6/59/59 54/60/60 50/52/52
s 4
f 1/53/53 4/61/61 55/62/62 51/54/54
f 5/63/63 8/55/55 52/56/56 56/64/64
s 3
f 9/65/65 3/57/57 53/58/58 57/66/66
f 6/59/59 12/67/67 58/68/68 54/60/60
s 4
f 4/61/61 10/69/69 59/70/70 55/62/62
f 11/71/71 5/63/63 56/64/64 60/72/72
s 3
f 12/67/67 14/73/73 61/74/74 58/68/68
s 4
f 13/75/75 11/71/71 60/72/72 62/76/76
f 10/69/69 16/77/77 63/78/78 59/70/70
s 3
f 15/79/79 9/65/65 57/66/66 64/80/80
s 4
f 17/81/81 13/75/75 62/76/76 65/82/82
f 16/77/77 20/83/83 66/84/84 63/78/78
s 3
f 14/73/73 18/85/85 67/86/86 61/74/74
f 19/87/87 15/79/79 64/80/80 68/88/88
s 4
f 21/89/89 17/81/81 65/82/82 69/90/90
f 20/91/83 24/92/91 70/93/92 66/94/84
s 3
f 18/85/85 22/95/93 71/96/94 67/86/86
f 23/97/95 19/98/87 68/99/88 72/100/96
s 4
f 24/92/91 26/101/97 73/102/98 70/93/92
f 27/103/99 21/89/89 69/90/90 74/104/100
s 3
f 25/105/101 23/97/95 72/100/96 75/106/102
f 22/95/93 28/107/103 76/108/104 71/96/94
s 4
f 26/101/97 40/109/105 77/110/106 73/102/98
f 37/111/107 27/103/99 74/104/100 78/112/108
s 5
f 43/113/109 32/114/110 31/115/111 44/116/112
s 4
f 40/109/105 37/111/107 78/112/108 77/110/106
s 5
f 46/117/113 34/118/114 32/114/110 43/113/109
f 44/116/112 31/115/111 36/119/115 48/120/116
s 3
f 28/107/103 38/121/117 79/122/118 76/108/104
f 39/123/119 25/105/101 75/106/102 80/124/120
f 38/121/117 39/123/119 80/124/120 79/122/118
s 5
f 51/125/121 49/126/122 34/118/114 46/117/113
f 48/120/116 36/119/115 50/127/123 52/128/124
f 55/129/125 53/130/126 49/126/122 51/125/121
f 52/128/124 50/127/123 54/131/127 56/132/128
f 59/133/129 57/134/130 53/130/126 55/129/125
f 56/132/128 54/131/127 58/135/131 60/136/132
f 60/136/132 58/135/131 61/137/133 62/138/134
f 63/139/135 64/140/136 57/134/130 59/133/129
f 62/138/134 61/137/133 67/141/137 65/142/138
f 66/143/139 68/144/140 64/140/136 63/139/135
f 65/142/138 67/141/137 71/145/141 69/146/142
f 70/147/143 72/148/144 68/144/140 66/143/139
f 73/149/145 75/150/146 72/148/144 70/147/143
f 69/146/142 71/145/141 76/151/147 74/152/148
f 74/152/148 76/151/147 79/153/149 78/154/150
f 77/155/151 80/156/152 75/150/146 73/149/145
f 78/154/150 79/153/149 80/156/152 77/155/151
s 1
f 8/8/8 7/7/7 35/157/153 47/158/154
f 45/159/155 33/160/156 2/2/2 1/1/1
f 47/158/154 35/157/153 30/161/157 41/162/158
f 42/163/159 29/164/160 33/160/156 45/159/155
f 41/162/158 30/161/157 29/164/160 42/163/159
